<svg xmlns="http://www.w3.org/2000/svg" viewBox="-139.816 -53 871.159 555.143"><rect width="1000%" height="1000%" x="-500%" y="-500%" fill="#EEEEEE"/><path fill="none" stroke="#EEEEEE" stroke-width="8" d="M.01 27.01L0 27v162.429h1"/><defs><linearGradient id="a" x1="0%" x2="50%" y1="0%" y2="50%"><stop offset="0%" stop-color="#FF3986"/><stop offset="100%" stop-color="#FF3986"/></linearGradient></defs><path fill="none" stroke="url(#a)" stroke-width="3" d="M.01 27.01L0 27v162.429h1"/><path fill="none" stroke="#EEEEEE" stroke-width="8" d="M373.71 28.51l-.01-.01V224H556"/><defs><linearGradient id="b" x1="0%" x2="50%" y1="0%" y2="50%"><stop offset="0%" stop-color="#3397DA"/><stop offset="100%" stop-color="#FF3986"/></linearGradient></defs><path fill="none" stroke="url(#b)" stroke-width="3" d="M373.71 28.51l-.01-.01V224H556"/><path fill="none" stroke="#EEEEEE" stroke-width="8" d="M422.71 5.51l-.01-.01h170.643V0"/><defs><linearGradient id="c" x1="0%" x2="50%" y1="0%" y2="50%"><stop offset="0%" stop-color="#3397DA"/><stop offset="100%" stop-color="#2ECB70"/></linearGradient></defs><path fill="none" stroke="url(#c)" stroke-width="3" d="M422.71 5.51l-.01-.01h170.643V0"/><path fill="none" stroke="#EEEEEE" stroke-width="8" d="M324.71-17.49l-.01-.01H0V27"/><defs><linearGradient id="d" x1="0%" x2="50%" y1="0%" y2="50%"><stop offset="0%" stop-color="#3397DA"/><stop offset="100%" stop-color="#FF3986"/></linearGradient></defs><path fill="none" stroke="url(#d)" stroke-width="3" d="M324.71-17.49l-.01-.01H0V27"/><path fill="none" stroke="url(#d)" stroke-width="1.5" d="M140.326-37.49l-2.01-.01v8h2M144.326-37.49l1.99-.01v8h-2"/><path fill="none" stroke="#EEEEEE" stroke-width="8" d="M38.882 209.439l-.01-.01v220.714h116.985"/><defs><linearGradient id="e" x1="0%" x2="50%" y1="0%" y2="50%"><stop offset="0%" stop-color="#FF3986"/><stop offset="100%" stop-color="#3397DA"/></linearGradient></defs><path fill="none" stroke="url(#e)" stroke-width="3" d="M38.882 209.439l-.01-.01v220.714h116.985"/><path fill="none" stroke="#EEEEEE" stroke-width="8" d="M-36.862 169.439l-.01-.01h191.8v170.357"/><defs><linearGradient id="f" x1="0%" x2="50%" y1="0%" y2="50%"><stop offset="0%" stop-color="#FF3986"/><stop offset="100%" stop-color="#3397DA"/></linearGradient></defs><path fill="none" stroke="url(#f)" stroke-width="3" d="M-36.862 169.439l-.01-.01h191.8v170.357"/><path fill="none" stroke="url(#f)" stroke-width="1.5" d="M174.939 287.296l-2.01-.01v8h2M178.939 287.296l1.99-.01v8h-2"/><path fill="#FFFFFF" stroke="#FF3986" stroke-width="3" d="M-119.816-33h239.633V87h-239.633z"/><path fill="#ff3986" stroke="#ff3986" d="M-118.816-8h239.632"/><path fill="none" stroke="#FF3986" stroke-width="3" d="M-119.816-33h239.633V87h-239.633z"/><text x="-109.816" y="-15" style="font:700 16px 'Lucida Console',monospace" fill="#000000">Order</text><text x="-109.816" y="9" style="font:500 14px 'Lucida Console',monospace" fill="#000000">id:</text><text x="-80.612" y="9" style="font:500 14px 'Lucida Console',monospace" fill="#C9A30B">Numeric</text><text x="-109.816" y="23" style="font:500 14px 'Lucida Console',monospace" fill="#000000">pet:</text><text x="-72.211" y="23" style="font:500 14px 'Lucida Console',monospace" fill="#3397DA">Pet</text><text x="-109.816" y="37" style="font:500 14px 'Lucida Console',monospace" fill="#000000">quantity:</text><text x="-30.204" y="37" style="font:500 14px 'Lucida Console',monospace" fill="#02b57b">Numeric</text><text x="-109.816" y="51" style="font:500 14px 'Lucida Console',monospace" fill="#000000">shipDate:</text><text x="-30.204" y="51" style="font:500 14px 'Lucida Console',monospace" fill="#02b57b">Date</text><text x="-109.816" y="65" style="font:500 14px 'Lucida Console',monospace" fill="#000000">status:</text><text x="-47.007" y="65" style="font:500 14px 'Lucida Console',monospace" fill="#530abb">Code(OrderStatus)</text><text x="-109.816" y="79" style="font:500 14px 'Lucida Console',monospace" fill="#000000">complete:</text><text x="-30.204" y="79" style="font:500 14px 'Lucida Console',monospace" fill="#02b57b">Indicator</text><path fill="#FFFFFF" stroke="#3397DA" stroke-width="3" d="M275.7-40.5h196v92h-196z"/><path fill="#3397da" stroke="#3397da" d="M276.7-15.5h196"/><path fill="none" stroke="#3397DA" stroke-width="3" d="M275.7-40.5h196v92h-196z"/><text x="285.7" y="-22.5" style="font:700 16px 'Lucida Console',monospace" fill="#000000">Customer</text><text x="285.7" y="1.5" style="font:500 14px 'Lucida Console',monospace" fill="#000000">id:</text><text x="314.904" y="1.5" style="font:500 14px 'Lucida Console',monospace" fill="#C9A30B">Numeric</text><text x="285.7" y="15.5" style="font:500 14px 'Lucida Console',monospace" fill="#000000">username:</text><text x="365.312" y="15.5" style="font:500 14px 'Lucida Console',monospace" fill="#3397DA">User</text><text x="285.7" y="29.5" style="font:500 14px 'Lucida Console',monospace" fill="#000000">address:</text><text x="356.911" y="29.5" style="font:500 14px 'Lucida Console',monospace" fill="#2ECB70">Address</text><text x="285.7" y="43.5" style="font:500 14px 'Lucida Console',monospace" fill="#000000">orders:</text><text x="348.51" y="43.5" style="font:500 14px 'Lucida Console',monospace" fill="#3397DA">Order[]</text><path fill="#FFFFFF" stroke="#2ECB70" stroke-width="3" d="M495.343-46h196v92h-196z"/><path fill="#2ecb70" stroke="#2ecb70" d="M496.343-21h196"/><path fill="none" stroke="#2ECB70" stroke-width="3" d="M495.343-46h196v92h-196z"/><text x="505.343" y="-28" style="font:700 16px 'Lucida Console',monospace" fill="#000000">Address</text><text x="505.343" y="-4" style="font:500 14px 'Lucida Console',monospace" fill="#000000">street:</text><text x="568.153" y="-4" style="font:500 14px 'Lucida Console',monospace" fill="#02b57b">Text</text><text x="505.343" y="10" style="font:500 14px 'Lucida Console',monospace" fill="#000000">city:</text><text x="551.35" y="10" style="font:500 14px 'Lucida Console',monospace" fill="#02b57b">Text</text><text x="505.343" y="24" style="font:500 14px 'Lucida Console',monospace" fill="#000000">state:</text><text x="559.751" y="24" style="font:500 14px 'Lucida Console',monospace" fill="#02b57b">Text</text><text x="505.343" y="38" style="font:500 14px 'Lucida Console',monospace" fill="#000000">zip:</text><text x="542.948" y="38" style="font:500 14px 'Lucida Console',monospace" fill="#02b57b">Numeric</text><path fill="#FFFFFF" stroke="#3397DA" stroke-width="3" d="M61.857 398.143h188v64h-188z"/><path fill="#3397da" stroke="#3397da" d="M62.857 423.143h188"/><path fill="none" stroke="#3397DA" stroke-width="3" d="M61.857 398.143h188v64h-188z"/><text x="71.857" y="416.143" style="font:700 16px 'Lucida Console',monospace" fill="#000000">Category</text><text x="71.857" y="440.143" style="font:500 14px 'Lucida Console',monospace" fill="#000000">id:</text><text x="101.061" y="440.143" style="font:500 14px 'Lucida Console',monospace" fill="#C9A30B">Numeric</text><text x="71.857" y="454.143" style="font:500 14px 'Lucida Console',monospace" fill="#000000">name:</text><text x="117.864" y="454.143" style="font:500 14px 'Lucida Console',monospace" fill="#02b57b">Text</text><path fill="#FFFFFF" stroke="#FF3986" stroke-width="3" d="M450 150h212v148H450z"/><path fill="#ff3986" stroke="#ff3986" d="M451 175h212"/><path fill="none" stroke="#FF3986" stroke-width="3" d="M450 150h212v148H450z"/><text x="460" y="168" style="font:700 16px 'Lucida Console',monospace" fill="#000000">User</text><text x="460" y="192" style="font:500 14px 'Lucida Console',monospace" fill="#000000">id:</text><text x="489.204" y="192" style="font:500 14px 'Lucida Console',monospace" fill="#02b57b">Numeric</text><text x="460" y="206" style="font:500 14px 'Lucida Console',monospace" fill="#000000">username:</text><text x="539.612" y="206" style="font:500 14px 'Lucida Console',monospace" fill="#C9A30B">Text</text><text x="460" y="220" style="font:500 14px 'Lucida Console',monospace" fill="#000000">firstName:</text><text x="548.014" y="220" style="font:500 14px 'Lucida Console',monospace" fill="#02b57b">Text</text><text x="460" y="234" style="font:500 14px 'Lucida Console',monospace" fill="#000000">lastName:</text><text x="539.612" y="234" style="font:500 14px 'Lucida Console',monospace" fill="#02b57b">Text</text><text x="460" y="248" style="font:500 14px 'Lucida Console',monospace" fill="#000000">email:</text><text x="514.408" y="248" style="font:500 14px 'Lucida Console',monospace" fill="#02b57b">Text</text><text x="460" y="262" style="font:500 14px 'Lucida Console',monospace" fill="#000000">password:</text><text x="539.612" y="262" style="font:500 14px 'Lucida Console',monospace" fill="#02b57b">Text</text><text x="460" y="276" style="font:500 14px 'Lucida Console',monospace" fill="#000000">phone:</text><text x="514.408" y="276" style="font:500 14px 'Lucida Console',monospace" fill="#02b57b">Text</text><text x="460" y="290" style="font:500 14px 'Lucida Console',monospace" fill="#000000">userStatus:</text><text x="556.415" y="290" style="font:500 14px 'Lucida Console',monospace" fill="#02b57b">Numeric</text><path fill="#FFFFFF" stroke="#3397DA" stroke-width="3" d="M60.929 307.786h188v64h-188z"/><path fill="#3397da" stroke="#3397da" d="M61.929 332.786h188"/><path fill="none" stroke="#3397DA" stroke-width="3" d="M60.929 307.786h188v64h-188z"/><text x="70.929" y="325.786" style="font:700 16px 'Lucida Console',monospace" fill="#000000">Tag</text><text x="70.929" y="349.786" style="font:500 14px 'Lucida Console',monospace" fill="#000000">id:</text><text x="100.133" y="349.786" style="font:500 14px 'Lucida Console',monospace" fill="#C9A30B">Numeric</text><text x="70.929" y="363.786" style="font:500 14px 'Lucida Console',monospace" fill="#000000">name:</text><text x="116.935" y="363.786" style="font:500 14px 'Lucida Console',monospace" fill="#02b57b">Text</text><path fill="#FFFFFF" stroke="#FF3986" stroke-width="3" d="M-112.616 129.429h227.231v120h-227.231z"/><path fill="#ff3986" stroke="#ff3986" d="M-111.616 154.429h227.232"/><path fill="none" stroke="#FF3986" stroke-width="3" d="M-112.616 129.429h227.231v120h-227.231z"/><text x="-102.616" y="147.429" style="font:700 16px 'Lucida Console',monospace" fill="#000000">Pet</text><text x="-102.616" y="171.429" style="font:500 14px 'Lucida Console',monospace" fill="#000000">id:</text><text x="-73.412" y="171.429" style="font:500 14px 'Lucida Console',monospace" fill="#C9A30B">Numeric</text><text x="-102.616" y="185.429" style="font:500 14px 'Lucida Console',monospace" fill="#000000">name:</text><text x="-56.609" y="185.429" style="font:500 14px 'Lucida Console',monospace" fill="#02b57b">Text</text><text x="-102.616" y="199.429" style="font:500 14px 'Lucida Console',monospace" fill="#000000">category:</text><text x="-23.003" y="199.429" style="font:500 14px 'Lucida Console',monospace" fill="#3397DA">Category</text><text x="-102.616" y="213.429" style="font:500 14px 'Lucida Console',monospace" fill="#000000">photoUrls:</text><text x="-14.602" y="213.429" style="font:500 14px 'Lucida Console',monospace" fill="#02b57b">Text[]</text><text x="-102.616" y="227.429" style="font:500 14px 'Lucida Console',monospace" fill="#000000">tags:</text><text x="-56.609" y="227.429" style="font:500 14px 'Lucida Console',monospace" fill="#3397DA">Tag[]</text><text x="-102.616" y="241.429" style="font:500 14px 'Lucida Console',monospace" fill="#000000">status:</text><text x="-39.806" y="241.429" style="font:500 14px 'Lucida Console',monospace" fill="#530abb">Code(SoldStatus)</text></svg>